<svg width="97" height="24" viewBox="0 0 97 24" fill="none" xmlns="http://www.w3.org/2000/svg">
<g clip-path="url(#clip0_5_313)">
<path d="M29.2583 16.8752H36.078V14.8104H31.6822V7.0332H29.2583V16.8752Z" fill="#999999"/>
<path d="M40.1184 15.5006C39.1461 15.5006 38.6394 14.6472 38.6394 13.367C38.6394 12.0869 39.1461 11.2197 40.1184 11.2197C41.0907 11.2197 41.611 12.0869 41.611 13.367C41.611 14.6472 41.0907 15.5006 40.1184 15.5006ZM40.1321 17.0973C42.3916 17.0973 43.8706 15.4868 43.8706 13.367C43.8706 11.2472 42.3916 9.63672 40.1321 9.63672C37.8862 9.63672 36.3799 11.2472 36.3799 13.367C36.3799 15.4868 37.8862 17.0973 40.1321 17.0973Z" fill="#999999"/>
<path d="M47.7817 19.3128C48.8224 19.3128 49.7399 19.0788 50.3562 18.5282C50.9176 18.0189 51.2874 17.2481 51.2874 16.1882V9.82879H49.1511V10.5859H49.1237C48.7129 9.99397 48.083 9.62231 47.1518 9.62231C45.4126 9.62231 44.2075 11.0814 44.2075 13.1461C44.2075 15.3072 45.6728 16.491 47.2476 16.491C48.0966 16.491 48.6307 16.1469 49.0415 15.6789H49.0963V16.3809C49.0963 17.2343 48.6992 17.7299 47.7543 17.7299C47.0148 17.7299 46.6451 17.4133 46.5218 17.0416H44.3582C44.5773 18.5145 45.8508 19.3128 47.7817 19.3128ZM47.768 14.8255C46.9327 14.8255 46.3849 14.1372 46.3849 13.0773C46.3849 12.0037 46.9327 11.3154 47.768 11.3154C48.6992 11.3154 49.1922 12.1138 49.1922 13.0636C49.1922 14.0546 48.7403 14.8255 47.768 14.8255Z" fill="#999999"/>
<path d="M55.6799 15.5006C54.7076 15.5006 54.2009 14.6472 54.2009 13.367C54.2009 12.0869 54.7076 11.2197 55.6799 11.2197C56.6522 11.2197 57.1723 12.0869 57.1723 13.367C57.1723 14.6472 56.6522 15.5006 55.6799 15.5006ZM55.6936 17.0973C57.9529 17.0973 59.4319 15.4868 59.4319 13.367C59.4319 11.2472 57.9529 9.63672 55.6936 9.63672C53.4478 9.63672 51.9414 11.2472 51.9414 13.367C51.9414 15.4868 53.4478 17.0973 55.6936 17.0973Z" fill="#999999"/>
<path d="M60.084 16.8752H62.3161V9.82749H60.084V16.8752ZM60.084 8.85018H62.3161V7.0332H60.084V8.85018Z" fill="#999999"/>
<path d="M63.2847 19.2027H65.5168V16.1469H65.5442C65.9824 16.7388 66.626 17.0967 67.5298 17.0967C69.3649 17.0967 70.5836 15.6376 70.5836 13.3526C70.5836 11.2328 69.447 9.62231 67.5846 9.62231C66.626 9.62231 65.9413 10.049 65.462 10.6822H65.4209V9.82879H63.2847V19.2027ZM66.9547 15.3623C65.9961 15.3623 65.4483 14.5777 65.4483 13.4352C65.4483 12.2927 65.9413 11.4255 66.9136 11.4255C67.8722 11.4255 68.3241 12.2239 68.3241 13.4352C68.3241 14.6328 67.8037 15.3623 66.9547 15.3623Z" fill="#999999"/>
<path d="M74.2175 17.0967C76.0525 17.0967 77.4082 16.2983 77.4082 14.7566C77.4082 12.9534 75.9566 12.6368 74.7241 12.4304C73.834 12.2652 73.0398 12.1964 73.0398 11.7008C73.0398 11.2603 73.4643 11.0539 74.012 11.0539C74.6283 11.0539 75.0528 11.2466 75.135 11.8798H77.1891C77.0795 10.4895 76.0114 9.62231 74.0257 9.62231C72.3687 9.62231 70.9993 10.3932 70.9993 11.8798C70.9993 13.5316 72.3003 13.8619 73.5191 14.0684C74.4503 14.2336 75.2993 14.3024 75.2993 14.9356C75.2993 15.3898 74.8748 15.6376 74.2038 15.6376C73.4643 15.6376 72.9987 15.2935 72.9165 14.5915H70.8076C70.8761 16.1469 72.1633 17.0967 74.2175 17.0967Z" fill="#999999"/>
<path d="M80.4405 17.0832C81.4128 17.0832 82.029 16.6978 82.5357 16.0096H82.5768V16.8768H84.7131V9.8291H82.4809V13.7659C82.4809 14.6055 82.0153 15.1837 81.2485 15.1837C80.5364 15.1837 80.194 14.757 80.194 13.9861V9.8291H77.9756V14.4541C77.9756 16.0233 78.8246 17.0832 80.4405 17.0832Z" fill="#999999"/>
<path d="M85.6841 16.8765H87.9162V12.9259C87.9162 12.0862 88.327 11.4943 89.0254 11.4943C89.6965 11.4943 90.0114 11.9348 90.0114 12.6919V16.8765H92.2436V12.9259C92.2436 12.0862 92.6407 11.4943 93.3528 11.4943C94.0238 11.4943 94.3388 11.9348 94.3388 12.6919V16.8765H96.5709V12.2927C96.5709 10.7097 95.7767 9.62231 94.1881 9.62231C93.2843 9.62231 92.5311 10.0077 91.9834 10.8612H91.956C91.5999 10.1041 90.9015 9.62231 89.984 9.62231C88.9707 9.62231 88.2997 10.1041 87.8614 10.8336H87.8204V9.82879H85.6841V16.8765Z" fill="#999999"/>
<path fill-rule="evenodd" clip-rule="evenodd" d="M11.4694 23.186C17.772 23.186 22.8811 18.0503 22.8811 11.7152C22.8811 5.38003 17.772 0.244385 11.4694 0.244385C5.16683 0.244385 0.0576172 5.38003 0.0576172 11.7152C0.0576172 18.0503 5.16683 23.186 11.4694 23.186ZM13.2308 9.10705C14.2035 8.12922 14.2035 6.5439 13.2308 5.56607C12.258 4.58825 10.6808 4.58825 9.70801 5.56607C8.73527 6.5439 8.73527 8.12922 9.70801 9.10705L11.4694 10.8775L13.2308 9.10705ZM14.0641 13.4857C15.0369 14.4635 16.6141 14.4635 17.5869 13.4857C18.5596 12.5079 18.5596 10.9225 17.5869 9.9447C16.6141 8.96693 15.0369 8.96693 14.0641 9.9447L12.3028 11.7152L14.0641 13.4857ZM13.2308 17.8643C14.2035 16.8865 14.2035 15.3012 13.2308 14.3233L11.4694 12.5529L9.70801 14.3233C8.73527 15.3012 8.73527 16.8865 9.70801 17.8643C10.6808 18.8421 12.258 18.8421 13.2308 17.8643ZM5.35189 13.4857C4.37913 12.5079 4.37913 10.9225 5.35189 9.9447C6.32471 8.96693 7.90187 8.96693 8.87466 9.9447L10.636 11.7152L8.87466 13.4857C7.90187 14.4635 6.32471 14.4635 5.35189 13.4857Z" fill="#999999"/>
</g>
<defs>
<clipPath id="clip0_5_313">
<rect width="97" height="23.5152" fill="white" transform="translate(0 0.0578613)"/>
</clipPath>
</defs>
</svg>
