<svg width="96" height="24" viewBox="0 0 96 24" fill="none" xmlns="http://www.w3.org/2000/svg">
<g clip-path="url(#clip0_5_297)">
<path d="M28.1587 16.6865H34.9884V14.6116H30.5861V6.79614H28.1587V16.6865Z" fill="#999999"/>
<path d="M39.0345 15.3024C38.0608 15.3024 37.5534 14.4448 37.5534 13.1583C37.5534 11.8719 38.0608 11.0004 39.0345 11.0004C40.0082 11.0004 40.5294 11.8719 40.5294 13.1583C40.5294 14.4448 40.0082 15.3024 39.0345 15.3024ZM39.0482 16.907C41.3111 16.907 42.7922 15.2885 42.7922 13.1583C42.7922 11.0281 41.3111 9.40967 39.0482 9.40967C36.7991 9.40967 35.2905 11.0281 35.2905 13.1583C35.2905 15.2885 36.7991 16.907 39.0482 16.907Z" fill="#999999"/>
<path d="M46.7093 19.1363C47.7516 19.1363 48.6705 18.9011 49.2876 18.3478C49.8499 17.836 50.2202 17.0614 50.2202 15.9962V9.60556H48.0807V10.3664H48.0533C47.6419 9.77155 47.011 9.39807 46.0785 9.39807C44.3367 9.39807 43.1299 10.8643 43.1299 12.9392C43.1299 15.111 44.5973 16.3006 46.1745 16.3006C47.0247 16.3006 47.5596 15.9547 47.971 15.4844H48.0259V16.1899C48.0259 17.0475 47.6282 17.5455 46.6819 17.5455C45.9413 17.5455 45.571 17.2273 45.4476 16.8539H43.2807C43.5002 18.334 44.7756 19.1363 46.7093 19.1363ZM46.6956 14.6268C45.859 14.6268 45.3105 13.9352 45.3105 12.8701C45.3105 11.7911 45.859 11.0995 46.6956 11.0995C47.6282 11.0995 48.1219 11.9018 48.1219 12.8562C48.1219 13.8522 47.6693 14.6268 46.6956 14.6268Z" fill="#999999"/>
<path d="M54.6195 15.3024C53.6458 15.3024 53.1383 14.4448 53.1383 13.1583C53.1383 11.8719 53.6458 11.0004 54.6195 11.0004C55.5932 11.0004 56.1143 11.8719 56.1143 13.1583C56.1143 14.4448 55.5932 15.3024 54.6195 15.3024ZM54.6332 16.907C56.8961 16.907 58.3769 15.2885 58.3769 13.1583C58.3769 11.0281 56.8961 9.40967 54.6332 9.40967C52.3841 9.40967 50.8755 11.0281 50.8755 13.1583C50.8755 15.2885 52.3841 16.907 54.6332 16.907Z" fill="#999999"/>
<path d="M59.0298 16.6865H61.2652V9.60417H59.0298V16.6865ZM59.0298 8.62205H61.2652V6.79614H59.0298V8.62205Z" fill="#999999"/>
<path d="M62.2349 19.0256H64.4703V15.9547H64.4977C64.9366 16.5495 65.5811 16.9092 66.4863 16.9092C68.324 16.9092 69.5446 15.4429 69.5446 13.1467C69.5446 11.0165 68.4063 9.39807 66.5411 9.39807C65.5811 9.39807 64.8954 9.82688 64.4154 10.4632H64.3743V9.60556H62.2349V19.0256ZM65.9103 15.1663C64.9503 15.1663 64.4017 14.3778 64.4017 13.2297C64.4017 12.0816 64.8954 11.2101 65.8691 11.2101C66.8291 11.2101 67.2817 12.0124 67.2817 13.2297C67.2817 14.4332 66.7606 15.1663 65.9103 15.1663Z" fill="#999999"/>
<path d="M73.1839 16.9092C75.0216 16.9092 76.3793 16.1069 76.3793 14.5576C76.3793 12.7456 74.9256 12.4274 73.6913 12.2199C72.7999 12.0539 72.0045 11.9848 72.0045 11.4868C72.0045 11.0442 72.4296 10.8367 72.9782 10.8367C73.5953 10.8367 74.0205 11.0303 74.1028 11.6666H76.1599C76.0502 10.2695 74.9805 9.39807 72.9919 9.39807C71.3325 9.39807 69.961 10.1727 69.961 11.6666C69.961 13.3265 71.2639 13.6585 72.4845 13.866C73.417 14.032 74.2673 14.1012 74.2673 14.7375C74.2673 15.1939 73.8422 15.4429 73.1702 15.4429C72.4296 15.4429 71.9633 15.0971 71.881 14.3917H69.769C69.8376 15.9547 71.1268 16.9092 73.1839 16.9092Z" fill="#999999"/>
<path d="M79.4158 16.8955C80.3895 16.8955 81.0067 16.5082 81.5141 15.8166H81.5553V16.688H83.6947V9.60571H81.4593V13.5618C81.4593 14.4056 80.993 14.9866 80.225 14.9866C79.5118 14.9866 79.169 14.5578 79.169 13.7832V9.60571H76.9473V14.2535C76.9473 15.8304 77.7975 16.8955 79.4158 16.8955Z" fill="#999999"/>
<path d="M84.6675 16.6879H86.9029V12.7179C86.9029 11.8741 87.3143 11.2793 88.0138 11.2793C88.6858 11.2793 89.0012 11.722 89.0012 12.4828V16.6879H91.2366V12.7179C91.2366 11.8741 91.6343 11.2793 92.3475 11.2793C93.0195 11.2793 93.3349 11.722 93.3349 12.4828V16.6879H95.5703V12.0816C95.5703 10.4909 94.7749 9.39807 93.1841 9.39807C92.2789 9.39807 91.5246 9.78539 90.976 10.643H90.9486C90.5921 9.88221 89.8926 9.39807 88.9738 9.39807C87.9589 9.39807 87.2869 9.88221 86.848 10.6153H86.8069V9.60556H84.6675V16.6879Z" fill="#999999"/>
<path d="M14.5197 1.13816L12.2723 0.530762L10.3784 7.66009L8.66848 1.22368L6.42099 1.83109L8.26842 8.78514L3.66691 4.14395L2.02166 5.8034L7.06894 10.8943L0.783357 9.19551L0.181152 11.4623L7.04894 13.3184C6.97031 12.9764 6.92871 12.62 6.92871 12.2537C6.92871 9.6615 9.01214 7.56009 11.5822 7.56009C14.1523 7.56009 16.2357 9.6615 16.2357 12.2537C16.2357 12.6176 16.1946 12.9718 16.1169 13.3119L22.3585 14.9987L22.9607 12.7319L16.0656 10.8684L22.3516 9.16952L21.7493 6.90269L14.8545 8.76606L19.456 4.1249L17.8108 2.46545L12.8335 7.48568L14.5197 1.13816Z" fill="#999999"/>
<path d="M16.1113 13.3385C15.9186 14.1602 15.5118 14.8983 14.9536 15.4897L19.4753 20.0505L21.1206 18.391L16.1113 13.3385Z" fill="#999999"/>
<path d="M14.9075 15.5394C14.3426 16.1214 13.6287 16.5557 12.8281 16.7795L14.4735 22.973L16.7209 22.3656L14.9075 15.5394Z" fill="#999999"/>
<path d="M12.7443 16.8011C12.3729 16.8974 11.9836 16.9486 11.5824 16.9486C11.1526 16.9486 10.7363 16.8898 10.3412 16.7798L8.69434 22.979L10.9418 23.5864L12.7443 16.8011Z" fill="#999999"/>
<path d="M10.2618 16.7574C9.47345 16.5225 8.77225 16.0826 8.21888 15.499L3.68604 20.071L5.33129 21.7305L10.2618 16.7574Z" fill="#999999"/>
<path d="M8.18107 15.4572C7.63719 14.8699 7.24102 14.1416 7.05245 13.3326L0.790527 15.025L1.39273 17.2918L8.18107 15.4572Z" fill="#999999"/>
</g>
<defs>
<clipPath id="clip0_5_297">
<rect width="96" height="23.6308" fill="white"/>
</clipPath>
</defs>
</svg>
