<svg width="88" height="23" viewBox="0 0 88 23" fill="none" xmlns="http://www.w3.org/2000/svg">
<g clip-path="url(#clip0_5_325)">
<path d="M26.8452 15.3822H33.0321V13.4947H29.0442V6.38525H26.8452V15.3822Z" fill="#999999"/>
<path d="M36.6978 14.1257C35.8157 14.1257 35.356 13.3455 35.356 12.1753C35.356 11.0051 35.8157 10.2123 36.6978 10.2123C37.5798 10.2123 38.0519 11.0051 38.0519 12.1753C38.0519 13.3455 37.5798 14.1257 36.6978 14.1257ZM36.7102 15.5853C38.7601 15.5853 40.1018 14.1131 40.1018 12.1753C40.1018 10.2375 38.7601 8.76526 36.7102 8.76526C34.6727 8.76526 33.3062 10.2375 33.3062 12.1753C33.3062 14.1131 34.6727 15.5853 36.7102 15.5853Z" fill="#999999"/>
<path d="M43.6498 17.6107C44.594 17.6107 45.4263 17.3968 45.9854 16.8935C46.4948 16.4279 46.8302 15.7233 46.8302 14.7544V8.94094H44.8921V9.63302H44.8673C44.4946 9.09194 43.9231 8.7522 43.0783 8.7522C41.5005 8.7522 40.4072 10.086 40.4072 11.9735C40.4072 13.949 41.7365 15.0312 43.1653 15.0312C43.9355 15.0312 44.42 14.7166 44.7927 14.2888H44.8424V14.9305C44.8424 15.7107 44.4821 16.1637 43.6249 16.1637C42.9541 16.1637 42.6186 15.8742 42.5068 15.5345H40.5439C40.7427 16.8809 41.898 17.6107 43.6498 17.6107ZM43.6373 13.5086C42.8795 13.5086 42.3826 12.8795 42.3826 11.9106C42.3826 10.9291 42.8795 10.2999 43.6373 10.2999C44.4821 10.2999 44.9294 11.0297 44.9294 11.898C44.9294 12.804 44.5194 13.5086 43.6373 13.5086Z" fill="#999999"/>
<path d="M50.8155 14.1257C49.9334 14.1257 49.4737 13.3455 49.4737 12.1753C49.4737 11.0051 49.9334 10.2123 50.8155 10.2123C51.6975 10.2123 52.1696 11.0051 52.1696 12.1753C52.1696 13.3455 51.6975 14.1257 50.8155 14.1257ZM50.8279 15.5853C52.8778 15.5853 54.2195 14.1131 54.2195 12.1753C54.2195 10.2375 52.8778 8.76526 50.8279 8.76526C48.7904 8.76526 47.4238 10.2375 47.4238 12.1753C47.4238 14.1131 48.7904 15.5853 50.8279 15.5853Z" fill="#999999"/>
<path d="M54.8105 15.3822H56.8356V8.93963H54.8105V15.3822ZM54.8105 8.04623H56.8356V6.38525H54.8105V8.04623Z" fill="#999999"/>
<path d="M57.7144 17.5101H59.7394V14.7166H59.7642C60.1618 15.2577 60.7457 15.5848 61.5656 15.5848C63.2304 15.5848 64.3361 14.251 64.3361 12.1622C64.3361 10.2244 63.3049 8.7522 61.6153 8.7522C60.7457 8.7522 60.1245 9.14227 59.6897 9.7211H59.6524V8.94094H57.7144V17.5101ZM61.0439 13.9994C60.1742 13.9994 59.6773 13.2821 59.6773 12.2377C59.6773 11.1933 60.1245 10.4006 61.0066 10.4006C61.8762 10.4006 62.2862 11.1304 62.2862 12.2377C62.2862 13.3325 61.8141 13.9994 61.0439 13.9994Z" fill="#999999"/>
<path d="M67.633 15.5848C69.2978 15.5848 70.5277 14.855 70.5277 13.4457C70.5277 11.7973 69.2108 11.5079 68.0927 11.3192C67.2852 11.1682 66.5646 11.1052 66.5646 10.6523C66.5646 10.2496 66.9497 10.0608 67.4467 10.0608C68.0057 10.0608 68.3908 10.237 68.4654 10.8158H70.3289C70.2295 9.54493 69.2605 8.7522 67.4591 8.7522C65.9558 8.7522 64.7135 9.45685 64.7135 10.8158C64.7135 12.3258 65.8937 12.6278 66.9994 12.8165C67.8442 12.9675 68.6145 13.0305 68.6145 13.6093C68.6145 14.0245 68.2293 14.251 67.6206 14.251C66.9497 14.251 66.5273 13.9364 66.4528 13.2947H64.5396C64.6017 14.7166 65.7695 15.5848 67.633 15.5848Z" fill="#999999"/>
<path d="M73.2787 15.5723C74.1608 15.5723 74.7198 15.22 75.1795 14.5909H75.2168V15.3836H77.1549V8.94104H75.1298V12.5398C75.1298 13.3074 74.7074 13.8359 74.0117 13.8359C73.3657 13.8359 73.0551 13.4458 73.0551 12.7411V8.94104H71.0425V13.169C71.0425 14.6034 71.8127 15.5723 73.2787 15.5723Z" fill="#999999"/>
<path d="M78.0352 15.3835H80.0602V11.7721C80.0602 11.0046 80.4329 10.4635 81.0665 10.4635C81.6753 10.4635 81.961 10.8662 81.961 11.5582V15.3835H83.986V11.7721C83.986 11.0046 84.3463 10.4635 84.9923 10.4635C85.6011 10.4635 85.8868 10.8662 85.8868 11.5582V15.3835H87.9119V11.1933C87.9119 9.74626 87.1913 8.7522 85.7502 8.7522C84.9302 8.7522 84.2469 9.10452 83.75 9.88468H83.7251C83.4021 9.19261 82.7685 8.7522 81.9361 8.7522C81.0168 8.7522 80.408 9.19261 80.0105 9.85951H79.9732V8.94094H78.0352V15.3835Z" fill="#999999"/>
<path fill-rule="evenodd" clip-rule="evenodd" d="M10.707 21.6758C16.4247 21.6758 21.0599 16.9811 21.0599 11.1899C21.0599 5.3987 16.4247 0.703979 10.707 0.703979C4.98916 0.703979 0.354004 5.3987 0.354004 11.1899C0.354004 16.9811 4.98916 21.6758 10.707 21.6758ZM13.9367 5.58877C14.0939 5.02316 13.552 4.6887 13.0571 5.04584L6.14809 10.031C5.61134 10.4183 5.69577 11.1899 6.27491 11.1899H8.09423V11.1756H11.64L8.75087 12.2081L7.4772 16.7911C7.31999 17.3567 7.86186 17.6911 8.35684 17.334L15.2658 12.3489C15.8026 11.9616 15.7181 11.1899 15.139 11.1899H12.38L13.9367 5.58877Z" fill="#999999"/>
</g>
<defs>
<clipPath id="clip0_5_325">
<rect width="88" height="21.4962" fill="white" transform="translate(0 0.630737)"/>
</clipPath>
</defs>
</svg>
