<svg width="97" height="24" viewBox="0 0 97 24" fill="none" xmlns="http://www.w3.org/2000/svg">
<g clip-path="url(#clip0_5_286)">
<path d="M28.2466 16.5167H35.1888V14.4754H30.714V6.78662H28.2466V16.5167Z" fill="#999999"/>
<path d="M39.3017 15.1578C38.312 15.1578 37.7962 14.3141 37.7962 13.0485C37.7962 11.7829 38.312 10.9256 39.3017 10.9256C40.2915 10.9256 40.8212 11.7829 40.8212 13.0485C40.8212 14.3141 40.2915 15.1578 39.3017 15.1578ZM39.3157 16.7364C41.6158 16.7364 43.1213 15.1442 43.1213 13.0485C43.1213 10.9528 41.6158 9.3606 39.3157 9.3606C37.0295 9.3606 35.4961 10.9528 35.4961 13.0485C35.4961 15.1442 37.0295 16.7364 39.3157 16.7364Z" fill="#999999"/>
<path d="M47.1027 18.9269C48.1622 18.9269 49.0962 18.6955 49.7235 18.1512C50.295 17.6476 50.6714 16.8856 50.6714 15.8377V9.55056H48.4967V10.299H48.4689C48.0507 9.71387 47.4094 9.34644 46.4615 9.34644C44.6911 9.34644 43.4644 10.7889 43.4644 12.8302C43.4644 14.9668 44.9559 16.1371 46.5591 16.1371C47.4233 16.1371 47.967 15.7969 48.3852 15.3342H48.441V16.0282C48.441 16.872 48.0367 17.3619 47.0748 17.3619C46.3221 17.3619 45.9457 17.0489 45.8202 16.6814H43.6177C43.8407 18.1376 45.1372 18.9269 47.1027 18.9269ZM47.0888 14.4905C46.2384 14.4905 45.6808 13.81 45.6808 12.7622C45.6808 11.7007 46.2384 11.0203 47.0888 11.0203C48.0367 11.0203 48.5386 11.8096 48.5386 12.7486C48.5386 13.7284 48.0785 14.4905 47.0888 14.4905Z" fill="#999999"/>
<path d="M55.1431 15.1578C54.1533 15.1578 53.6375 14.3141 53.6375 13.0485C53.6375 11.7829 54.1533 10.9256 55.1431 10.9256C56.1328 10.9256 56.6625 11.7829 56.6625 13.0485C56.6625 14.3141 56.1328 15.1578 55.1431 15.1578ZM55.157 16.7364C57.4571 16.7364 58.9628 15.1442 58.9628 13.0485C58.9628 10.9528 57.4571 9.3606 55.157 9.3606C52.8708 9.3606 51.3374 10.9528 51.3374 13.0485C51.3374 15.1442 52.8708 16.7364 55.157 16.7364Z" fill="#999999"/>
<path d="M59.626 16.5167H61.8982V9.54916H59.626V16.5167ZM59.626 8.58295H61.8982V6.78662H59.626V8.58295Z" fill="#999999"/>
<path d="M62.8838 18.818H65.156V15.7969H65.1839C65.63 16.3821 66.2852 16.7359 67.2052 16.7359C69.0732 16.7359 70.3139 15.2934 70.3139 13.0344C70.3139 10.9386 69.1568 9.34644 67.261 9.34644C66.2852 9.34644 65.5882 9.7683 65.1003 10.3943H65.0584V9.55056H62.8838V18.818ZM66.6197 15.0212C65.6439 15.0212 65.0863 14.2455 65.0863 13.116C65.0863 11.9865 65.5882 11.1292 66.5779 11.1292C67.5537 11.1292 68.0138 11.9185 68.0138 13.116C68.0138 14.2999 67.484 15.0212 66.6197 15.0212Z" fill="#999999"/>
<path d="M74.0136 16.7359C75.8816 16.7359 77.2616 15.9466 77.2616 14.4224C77.2616 12.6397 75.784 12.3267 74.5294 12.1226C73.6232 11.9593 72.8147 11.8912 72.8147 11.4013C72.8147 10.9659 73.2469 10.7617 73.8045 10.7617C74.4318 10.7617 74.8639 10.9522 74.9476 11.5782H77.0386C76.9271 10.2038 75.8397 9.34644 73.8184 9.34644C72.1317 9.34644 70.7376 10.1085 70.7376 11.5782C70.7376 13.2113 72.062 13.5379 73.3026 13.742C74.2506 13.9053 75.1148 13.9733 75.1148 14.5993C75.1148 15.0484 74.6827 15.2934 73.9996 15.2934C73.2469 15.2934 72.7729 14.9532 72.6893 14.2591H70.5425C70.6122 15.7969 71.9226 16.7359 74.0136 16.7359Z" fill="#999999"/>
<path d="M80.3481 16.7225C81.3378 16.7225 81.9651 16.3414 82.4809 15.661H82.5227V16.5184H84.6974V9.55078H82.4252V13.4428C82.4252 14.2729 81.9512 14.8445 81.1706 14.8445C80.4457 14.8445 80.0972 14.4226 80.0972 13.6606V9.55078H77.8389V14.1233C77.8389 15.6746 78.7032 16.7225 80.3481 16.7225Z" fill="#999999"/>
<path d="M85.6855 16.5181H87.9578V12.6125C87.9578 11.7824 88.376 11.1972 89.0869 11.1972C89.77 11.1972 90.0906 11.6327 90.0906 12.3811V16.5181H92.3629V12.6125C92.3629 11.7824 92.7671 11.1972 93.492 11.1972C94.1751 11.1972 94.4957 11.6327 94.4957 12.3811V16.5181H96.7679V11.9865C96.7679 10.4215 95.9594 9.34644 94.3424 9.34644C93.4223 9.34644 92.6556 9.72747 92.098 10.5712H92.0701C91.7077 9.82273 90.9967 9.34644 90.0628 9.34644C89.0312 9.34644 88.3481 9.82274 87.902 10.544H87.8602V9.55056H85.6855V16.5181Z" fill="#999999"/>
<path fill-rule="evenodd" clip-rule="evenodd" d="M5.02635 2.39896C4.19536 2.96619 3.44393 3.63683 2.79162 4.39178C5.45726 4.15019 8.84387 4.54467 12.7757 6.46384C16.9743 8.51317 20.3553 8.58246 22.7082 8.13939C22.4947 7.50835 22.2259 6.90186 21.9076 6.32531C19.214 6.60264 15.761 6.23555 11.7367 4.27133C9.18122 3.02399 6.92861 2.51017 5.02635 2.39896ZM20.3341 4.13903C18.207 1.81897 15.1159 0.358887 11.6753 0.358887C10.665 0.358887 9.68463 0.484826 8.75006 0.721487C10.0158 1.05864 11.3605 1.55189 12.7757 2.24269C15.722 3.6808 18.2658 4.14385 20.3341 4.13903ZM23.2113 10.3544C20.3687 10.9024 16.4433 10.7898 11.7367 8.49248C7.33647 6.34471 3.83429 6.37175 1.4723 6.88417C1.35038 6.9106 1.23133 6.93838 1.11516 6.9673C0.805912 7.62385 0.559064 8.31426 0.381948 9.0312C0.571117 8.98187 0.766595 8.93498 0.968279 8.89121C3.83379 8.26958 7.88252 8.29657 12.7757 10.685C17.1759 12.8328 20.6781 12.8057 23.0401 12.2933C23.121 12.2758 23.2008 12.2576 23.2792 12.2389C23.2878 12.0601 23.2921 11.8802 23.2921 11.6993C23.2921 11.2443 23.2647 10.7955 23.2113 10.3544ZM22.8999 14.6321C20.0849 15.1126 16.2738 14.9282 11.7367 12.7136C7.33647 10.5659 3.83429 10.5929 1.4723 11.1053C0.948002 11.219 0.476355 11.3575 0.0602956 11.5038C0.0591612 11.5688 0.0585938 11.634 0.0585938 11.6993C0.0585938 17.9625 5.25959 23.0398 11.6753 23.0398C17.0522 23.0398 21.5759 19.4737 22.8999 14.6321Z" fill="#999999"/>
</g>
<defs>
<clipPath id="clip0_5_286">
<rect width="97" height="23.2479" fill="white" transform="translate(0 0.191406)"/>
</clipPath>
</defs>
</svg>
