<svg width="48" height="49" viewBox="0 0 48 49" fill="none" xmlns="http://www.w3.org/2000/svg">
<mask id="mask0_2008_156" style="mask-type:luminance" maskUnits="userSpaceOnUse" x="0" y="0" width="48" height="49">
<path d="M0 0.126953H48V48.127H0V0.126953Z" fill="white"/>
</mask>
<g mask="url(#mask0_2008_156)">
<path d="M8.35986 9.39551C9.15271 8.48807 10.0174 7.64606 10.9457 6.87766" stroke="#9DFF3A" stroke-width="1.5" stroke-miterlimit="10" stroke-linecap="round" stroke-linejoin="round"/>
<path d="M3.41064 19.0774C3.96197 16.6808 4.90644 14.3921 6.20571 12.3042" stroke="#9DFF3A" stroke-width="1.5" stroke-miterlimit="10" stroke-linecap="round" stroke-linejoin="round"/>
<path d="M10.8061 41.2603C5.93689 37.1628 2.84033 31.0083 2.84033 24.127C2.84033 23.8656 2.84483 23.6053 2.85365 23.3461" stroke="#9DFF3A" stroke-width="1.5" stroke-miterlimit="10" stroke-linecap="round" stroke-linejoin="round"/>
<path d="M35.8403 43.6709C32.6495 45.4504 28.977 46.4639 25.0691 46.4639C21.1744 46.4639 17.5138 45.4574 14.3306 43.689" stroke="#9DFF3A" stroke-width="1.5" stroke-miterlimit="10" stroke-linecap="round" stroke-linejoin="round"/>
<path d="M43.9175 12.2807C46.0592 15.7144 47.2975 19.7753 47.2975 24.1268C47.2975 30.9981 44.21 37.1447 39.353 41.2422" stroke="#9DFF3A" stroke-width="1.5" stroke-miterlimit="10" stroke-linecap="round" stroke-linejoin="round"/>
<path d="M38.9951 6.71619C39.8177 7.38149 40.5921 8.10421 41.3125 8.87891" stroke="#9DFF3A" stroke-width="1.5" stroke-miterlimit="10" stroke-linecap="round" stroke-linejoin="round"/>
<path d="M14.4697 4.48828C17.6203 2.7675 21.2313 1.78997 25.0694 1.78997C28.809 1.78997 32.3329 2.718 35.4256 4.35731" stroke="#9DFF3A" stroke-width="1.5" stroke-miterlimit="10" stroke-linecap="round" stroke-linejoin="round"/>
<path d="M26.9297 9.59839C29.4333 8.04036 32.1912 6.8158 35.155 5.99839" stroke="#9DFF3A" stroke-width="1.5" stroke-miterlimit="10" stroke-linecap="round" stroke-linejoin="round"/>
<path d="M17.8228 18.2117C19.43 15.9296 21.3322 13.8701 23.4798 12.0871" stroke="#9DFF3A" stroke-width="1.5" stroke-miterlimit="10" stroke-linecap="round" stroke-linejoin="round"/>
<path d="M12.2634 40.3284C11.4633 33.7866 12.7283 27.4012 15.5859 21.8908" stroke="#9DFF3A" stroke-width="1.5" stroke-miterlimit="10" stroke-linecap="round" stroke-linejoin="round"/>
<path d="M23.2073 9.59863C20.6191 7.98791 17.759 6.73363 14.6807 5.91707" stroke="#9DFF3A" stroke-width="1.5" stroke-miterlimit="10" stroke-linecap="round" stroke-linejoin="round"/>
<path d="M35.3702 23.5908C33.3928 19.1519 30.4138 15.2031 26.6587 12.0872" stroke="#9DFF3A" stroke-width="1.5" stroke-miterlimit="10" stroke-linecap="round" stroke-linejoin="round"/>
<path d="M37.7716 31.843C37.5603 30.4153 37.2516 29.0036 36.8477 27.618" stroke="#9DFF3A" stroke-width="1.5" stroke-miterlimit="10" stroke-linecap="round" stroke-linejoin="round"/>
<path d="M37.8618 40.4348C38.0481 38.9534 38.1301 37.4607 38.1073 35.9677" stroke="#9DFF3A" stroke-width="1.5" stroke-miterlimit="10" stroke-linecap="round" stroke-linejoin="round"/>
<path d="M14.6126 19.6038C11.4105 19.5874 8.16006 19.931 4.91162 20.6641" stroke="#9DFF3A" stroke-width="1.5" stroke-miterlimit="10" stroke-linecap="round" stroke-linejoin="round"/>
<path d="M34.3255 24.5259C29.5584 22.0267 24.3207 20.4134 18.8721 19.8386" stroke="#9DFF3A" stroke-width="1.5" stroke-miterlimit="10" stroke-linecap="round" stroke-linejoin="round"/>
<path d="M45.5026 32.9324C43.2482 30.5788 40.7355 28.4871 38.0122 26.697" stroke="#9DFF3A" stroke-width="1.5" stroke-miterlimit="10" stroke-linecap="round" stroke-linejoin="round"/>
<path d="M37.2583 23.7141C39.3882 20.2855 41.0274 16.5755 42.128 12.6921" stroke="#9DFF3A" stroke-width="1.5" stroke-miterlimit="10" stroke-linecap="round" stroke-linejoin="round"/>
<path d="M14.6123 41.8086C22.6484 39.0372 29.6806 33.9343 34.8278 27.2272" stroke="#9DFF3A" stroke-width="1.5" stroke-miterlimit="10" stroke-linecap="round" stroke-linejoin="round"/>
<path d="M25.0683 12.8008C23.8895 12.8008 22.9307 11.8372 22.9307 10.6527C22.9307 9.46825 23.8895 8.50469 25.0683 8.50469C26.247 8.50469 27.2059 9.46825 27.2059 10.6527C27.2059 11.8372 26.247 12.8008 25.0683 12.8008Z" stroke="#9DFF3A" stroke-width="1.5" stroke-miterlimit="10" stroke-linecap="round" stroke-linejoin="round"/>
<path d="M16.7499 22.2388C15.5712 22.2388 14.6123 21.2751 14.6123 20.0907C14.6123 18.9062 15.5712 17.9426 16.7499 17.9426C17.9286 17.9426 18.8875 18.9062 18.8875 20.0907C18.8875 21.2751 17.9286 22.2388 16.7499 22.2388Z" stroke="#9DFF3A" stroke-width="1.5" stroke-miterlimit="10" stroke-linecap="round" stroke-linejoin="round"/>
<path d="M36.1913 27.7219C35.0126 27.7219 34.0537 26.7583 34.0537 25.5738C34.0537 24.3894 35.0126 23.4257 36.1913 23.4257C37.37 23.4257 38.3289 24.3894 38.3289 25.5738C38.3289 26.7583 37.37 27.7219 36.1913 27.7219Z" stroke="#9DFF3A" stroke-width="1.5" stroke-miterlimit="10" stroke-linecap="round" stroke-linejoin="round"/>
<path d="M12.5834 44.6003C11.4047 44.6003 10.4458 43.6368 10.4458 42.4522C10.4458 41.2678 11.4047 40.3042 12.5834 40.3042C13.7621 40.3042 14.7211 41.2678 14.7211 42.4522C14.7211 43.6368 13.7621 44.6003 12.5834 44.6003Z" stroke="#9DFF3A" stroke-width="1.5" stroke-miterlimit="10" stroke-linecap="round" stroke-linejoin="round"/>
<path d="M37.6771 44.7227C36.4984 44.7227 35.5396 43.759 35.5396 42.5746C35.5396 41.3901 36.4984 40.4265 37.6771 40.4265C38.8559 40.4265 39.8148 41.3901 39.8148 42.5746C39.8148 43.759 38.8559 44.7227 37.6771 44.7227Z" stroke="#9DFF3A" stroke-width="1.5" stroke-miterlimit="10" stroke-linecap="round" stroke-linejoin="round"/>
<path d="M42.6611 12.6919C41.4824 12.6919 40.5234 11.7282 40.5234 10.5438C40.5234 9.35936 41.4824 8.39571 42.6611 8.39571C43.8398 8.39571 44.7987 9.35936 44.7987 10.5438C44.7987 11.7282 43.8398 12.6919 42.6611 12.6919Z" stroke="#9DFF3A" stroke-width="1.5" stroke-miterlimit="10" stroke-linecap="round" stroke-linejoin="round"/>
<path d="M37.2343 7.64746C36.0556 7.64746 35.0967 6.6839 35.0967 5.49937C35.0967 4.31493 36.0556 3.35137 37.2343 3.35137C38.413 3.35137 39.372 4.31493 39.372 5.49937C39.372 6.6839 38.413 7.64746 37.2343 7.64746Z" stroke="#9DFF3A" stroke-width="1.5" stroke-miterlimit="10" stroke-linecap="round" stroke-linejoin="round"/>
<path d="M12.5834 7.64746C11.4047 7.64746 10.4458 6.6839 10.4458 5.49937C10.4458 4.31493 11.4047 3.35137 12.5834 3.35137C13.7621 3.35137 14.7211 4.31493 14.7211 5.49937C14.7211 6.6839 13.7621 7.64746 12.5834 7.64746Z" stroke="#9DFF3A" stroke-width="1.5" stroke-miterlimit="10" stroke-linecap="round" stroke-linejoin="round"/>
<path d="M2.84072 23.3457C1.662 23.3457 0.703125 22.3821 0.703125 21.1976C0.703125 20.0132 1.662 19.0496 2.84072 19.0496C4.01944 19.0496 4.97831 20.0132 4.97831 21.1976C4.97831 22.3821 4.01944 23.3457 2.84072 23.3457Z" stroke="#9DFF3A" stroke-width="1.5" stroke-miterlimit="10" stroke-linecap="round" stroke-linejoin="round"/>
</g>
</svg>
