<svg width="30" height="31" viewBox="0 0 30 31" fill="none" xmlns="http://www.w3.org/2000/svg">
<path d="M7.5 11.377C9.5625 11.377 10.5938 11.377 11.2338 10.7357C11.875 10.0957 11.875 9.06445 11.875 7.00195C11.875 4.93945 11.875 3.9082 11.2338 3.2682C10.5938 2.62695 9.5625 2.62695 7.5 2.62695C5.4375 2.62695 4.40625 2.62695 3.76625 3.2682C3.125 3.9082 3.125 4.93945 3.125 7.00195C3.125 9.06445 3.125 10.0957 3.76625 10.7357C4.40625 11.377 5.4375 11.377 7.5 11.377ZM7.5 11.377V17.627M7.5 17.627C6.6425 17.627 5.95 18.317 4.57125 19.6982C3.19 21.0782 2.5 21.7695 2.5 22.627C2.5 23.4845 3.19 24.177 4.57125 25.5557C5.95125 26.937 6.6425 27.627 7.5 27.627C8.3575 27.627 9.05 26.937 10.4288 25.5557C11.81 24.1757 12.5 23.4845 12.5 22.627M7.5 17.627C8.3575 17.627 9.04875 18.317 10.4288 19.6982C11.81 21.077 12.5 21.7695 12.5 22.627M12.5 22.627H18.75M18.75 22.627C18.75 20.5645 18.75 19.5332 19.3913 18.8932C20.0313 18.252 21.0625 18.252 23.125 18.252C25.1875 18.252 26.2188 18.252 26.8588 18.8932C27.5 19.5332 27.5 20.5645 27.5 22.627C27.5 24.6895 27.5 25.7207 26.8588 26.3607C26.2188 27.002 25.1875 27.002 23.125 27.002C21.0625 27.002 20.0313 27.002 19.3913 26.3607C18.75 25.7207 18.75 24.6895 18.75 22.627Z" stroke="#9DFF3A" stroke-width="1.5" stroke-linecap="round" stroke-linejoin="round"/>
</svg>
