<svg width="48" height="49" viewBox="0 0 48 49" fill="none" xmlns="http://www.w3.org/2000/svg">
<g clip-path="url(#clip0_2008_105)">
<path d="M18 12.127C18 14.957 18 16.371 17.12 17.247C16.242 18.127 14.83 18.127 12 18.127C9.17 18.127 7.756 18.127 6.88 17.247C6 16.369 6 14.957 6 12.127C6 9.29695 6 7.88295 6.88 7.00695C7.758 6.12695 9.17 6.12695 12 6.12695C14.83 6.12695 16.244 6.12695 17.12 7.00695C18 7.88495 18 9.29695 18 12.127ZM18 12.127H24M36 18.127C33.17 18.127 31.756 18.127 30.88 17.247C30 16.369 30 14.957 30 12.127C30 9.29695 30 7.88295 30.88 7.00695C31.758 6.12695 33.17 6.12695 36 6.12695C38.83 6.12695 40.244 6.12695 41.12 7.00695C42 7.88495 42 9.29695 42 12.127C42 14.957 42 16.371 41.12 17.247C40.242 18.127 38.83 18.127 36 18.127ZM36 18.127V24.127M30 36.127C30 33.297 30 31.883 30.88 31.007C31.758 30.127 33.17 30.127 36 30.127C38.83 30.127 40.244 30.127 41.12 31.007C42 31.885 42 33.299 42 36.127C42 38.955 42 40.369 41.12 41.247C40.242 42.127 38.828 42.127 36 42.127C33.172 42.127 31.758 42.127 30.88 41.247C30 40.369 30 38.957 30 36.127ZM30 36.127H24M12 30.127C14.83 30.127 16.244 30.127 17.12 31.007C18 31.885 18 33.297 18 36.127C18 38.957 18 40.371 17.12 41.247C16.242 42.127 14.83 42.127 12 42.127C9.17 42.127 7.756 42.127 6.88 41.247C6 40.369 6 38.957 6 36.127C6 33.297 6 31.883 6.88 31.007C7.758 30.127 9.17 30.127 12 30.127ZM12 30.127V24.127" stroke="#9DFF3A" stroke-width="2" stroke-linecap="round" stroke-linejoin="round"/>
</g>
<defs>
<clipPath id="clip0_2008_105">
<rect width="48" height="48" fill="white" transform="translate(0 0.126953)"/>
</clipPath>
</defs>
</svg>
