<svg width="33" height="33" viewBox="0 0 33 33" fill="none" xmlns="http://www.w3.org/2000/svg">
<path fill-rule="evenodd" clip-rule="evenodd" d="M16.5 32.1269C25.3366 32.1269 32.5 24.9635 32.5 16.1269C32.5 7.2904 25.3366 0.126953 16.5 0.126953C7.66343 0.126953 0.5 7.2904 0.5 16.1269C0.5 24.9635 7.66343 32.1269 16.5 32.1269ZM21.4915 7.58042C21.7344 6.71739 20.8969 6.20706 20.132 6.75199L9.45449 14.3586C8.62497 14.9496 8.75545 16.1269 9.65049 16.1269H12.4622V16.1052H17.942L13.477 17.6806L11.5086 24.6735C11.2656 25.5365 12.1031 26.0468 12.868 25.5019L23.5455 17.8953C24.3751 17.3044 24.2445 16.1269 23.3495 16.1269H19.0857L21.4915 7.58042Z" fill="#9DFF3A"/>
</svg>
